<?xml version="1.0" standalone="no"?>
<!DOCTYPE svg PUBLIC "-//W3C//DTD SVG 20010904//EN"
 "http://www.w3.org/TR/2001/REC-SVG-20010904/DTD/svg10.dtd">
<svg version="1.0" xmlns="http://www.w3.org/2000/svg"
 width="512.000000pt" height="512.000000pt" viewBox="0 0 512.000000 512.000000"
 preserveAspectRatio="xMidYMid meet">
<metadata>
Created by potrace 1.14, written by Peter Selinger 2001-2017
</metadata>
<g transform="translate(0.000000,512.000000) scale(0.100000,-0.100000)"
fill="#000000" stroke="none">
<path d="M2365 4726 c-147 -56 -227 -158 -231 -296 -2 -70 11 -165 27 -184 5
-6 33 -45 62 -86 65 -93 81 -111 187 -222 103 -108 255 -234 294 -244 27 -6
41 6 227 195 110 111 199 208 199 216 0 8 4 15 8 15 10 0 59 85 86 150 26 63
27 180 2 245 -40 103 -81 151 -160 190 -73 36 -198 35 -269 -1 -36 -19 -97
-79 -97 -96 0 -7 -19 7 -42 30 -43 45 -91 74 -143 87 -50 12 -118 13 -150 1z"/>
<path d="M3108 3729 c-62 -7 -127 -40 -169 -86 -25 -27 -77 -108 -70 -108 4 0
-8 -26 -78 -178 -23 -49 -41 -92 -41 -97 0 -32 -43 2 -222 180 -235 233 -251
244 -378 244 -76 1 -91 -2 -139 -29 -134 -74 -195 -237 -139 -368 22 -52 29
-61 81 -122 15 -18 27 -37 27 -43 0 -6 4 -12 9 -14 5 -1 28 -28 52 -60 36 -46
190 -244 221 -283 4 -5 20 -24 35 -41 16 -18 35 -42 43 -54 8 -12 23 -32 33
-43 101 -120 129 -158 123 -164 -3 -4 -25 -7 -49 -8 -127 -6 -212 -58 -266
-161 -29 -56 -34 -84 -33 -179 l1 -80 -72 0 c-93 0 -170 -25 -238 -79 -54 -42
-104 -118 -116 -174 -8 -35 -6 -138 2 -177 l6 -30 -78 -1 c-98 -1 -169 -30
-218 -87 -19 -22 -35 -46 -35 -53 0 -7 -4 -14 -10 -16 -5 -1 -17 -32 -26 -67
-36 -143 4 -250 174 -466 92 -117 286 -295 322 -295 5 0 10 -4 10 -9 0 -4 46
-31 103 -60 109 -54 254 -105 328 -115 24 -3 55 -8 69 -11 60 -12 337 -4 361
10 4 3 23 7 44 11 82 13 228 67 350 130 106 54 112 58 180 116 174 148 299
305 365 458 11 25 24 52 29 61 6 9 22 61 36 115 23 83 27 120 28 238 2 249
-32 399 -131 581 -26 48 -118 180 -159 230 -5 6 -44 57 -88 115 -44 58 -82
107 -85 110 -3 3 -17 21 -30 40 -13 19 -30 41 -37 48 -27 28 -35 53 -25 80 6
15 13 36 18 47 4 11 8 25 9 30 2 6 44 132 95 280 97 286 112 360 87 443 -6 20
-10 40 -9 45 1 4 -3 7 -8 7 -5 0 -10 5 -10 10 0 17 -62 81 -95 98 -49 25 -126
38 -187 31z"/>
</g>
</svg>
